<svg width="256" height="256" viewBox="0 0 256 256" fill="none" xmlns="http://www.w3.org/2000/svg">
  <defs>
    <linearGradient id="hh-gradient" x1="40" y1="24" x2="216" y2="232" gradientUnits="userSpaceOnUse">
      <stop stop-color="#FF6C49" />
      <stop offset="0.55" stop-color="#FF9161" />
      <stop offset="1" stop-color="#FFC985" />
    </linearGradient>
    <radialGradient id="hh-glow" cx="0" cy="0" r="1" gradientUnits="userSpaceOnUse" gradientTransform="translate(72 56) rotate(48.5) scale(143.228)">
      <stop stop-color="white" stop-opacity="0.34" />
      <stop offset="1" stop-color="white" stop-opacity="0" />
    </radialGradient>
  </defs>
  <rect x="20" y="20" width="216" height="216" rx="60" fill="url(#hh-gradient)" />
  <rect x="20" y="20" width="216" height="216" rx="60" fill="url(#hh-glow)" />
  <rect x="20.75" y="20.75" width="214.5" height="214.5" rx="59.25" stroke="white" stroke-opacity="0.18" stroke-width="1.5" />
  <path d="M72 76C72 71.5817 75.5817 68 80 68H93C97.4183 68 101 71.5817 101 76V116H155V76C155 71.5817 158.582 68 163 68H176C180.418 68 184 71.5817 184 76V180C184 184.418 180.418 188 176 188H163C158.582 188 155 184.418 155 180V143H101V180C101 184.418 97.4183 188 93 188H80C75.5817 188 72 184.418 72 180V76Z" fill="white" />
  <rect x="82" y="196" width="92" height="10" rx="5" fill="white" fill-opacity="0.26" />
</svg>
